<svg width="225" height="24" viewBox="0 0 225 24" fill="none" xmlns="http://www.w3.org/2000/svg">
<g clip-path="url(#clip0_442_3906)">
<path d="M39.2995 16.9523L30.8458 2.29257C28.9921 -0.761157 24.4786 -0.796978 22.6876 2.41795L13.8219 17.6597C12.1652 20.4538 14.2159 23.9642 17.5294 23.9642H35.3055C38.6458 23.9642 41.1532 20.3642 39.2995 16.9523Z" fill="white" fill-opacity="0.67"/>
<path d="M27.1115 18.0894L26.5921 17.176C26.1085 16.3342 25.0339 14.5074 25.0339 14.5074L17.8787 2.09542C16.0339 -0.662792 11.6458 -0.895628 9.79212 2.58795L1.47271 16.979C-0.246692 20.0059 1.7951 23.9372 5.53838 23.9641H23.216H30.7563H35.2429C30.6578 23.9999 29.1891 21.6268 27.1115 18.0894Z" fill="white" fill-opacity="0.84"/>
<path d="M27.1116 18.0897L26.5922 17.1763C26.1086 16.3345 25.034 14.5076 25.034 14.5076L20.3683 6.41211L13.7863 17.6957C12.1295 20.4897 14.1803 24.0002 17.4937 24.0002H23.1803H30.7206H35.234C30.6221 23.9643 29.1892 21.627 27.1116 18.0897Z" fill="white"/>
<path d="M223.061 22.7999C221.655 22.7999 220.553 22.4954 219.711 21.9671C218.834 21.3939 218.377 20.5611 218.377 19.4148V2.8208H220.58C221.377 2.8208 222.067 3.46558 222.067 4.30737V18.9223C222.067 18.9581 222.067 19.6477 222.64 20.2118C222.98 20.5521 223.401 20.7402 223.974 20.7402H224.395C224.547 20.7402 224.699 20.8924 224.699 21.0447V22.8357L223.061 22.7999Z" fill="white"/>
<path d="M175.49 22.8001C173.207 22.8001 171.344 22.1911 169.938 20.9732C169.213 20.3642 168.72 19.6747 168.416 18.9224C168.111 18.1613 167.959 17.0598 167.959 15.5732C167.959 14.1314 168.111 12.9851 168.416 12.2239C168.684 11.4986 169.177 10.8538 169.902 10.2448C171.308 9.02692 173.18 8.41797 175.455 8.41797C177.738 8.41797 179.601 9.02692 181.007 10.2448C181.732 10.8538 182.225 11.5344 182.493 12.2239C182.798 13.021 182.95 14.1314 182.95 15.5732C182.95 17.0598 182.798 18.1613 182.493 18.9224C182.189 19.6836 181.696 20.3642 180.971 20.9732C179.637 22.1911 177.774 22.8001 175.49 22.8001ZM175.49 10.5135C172.983 10.5135 171.72 12.2239 171.72 15.609C171.72 19.0389 172.974 20.7493 175.49 20.7493C178.007 20.7493 179.26 19.0389 179.26 15.6538C179.26 12.2239 177.962 10.5135 175.49 10.5135Z" fill="white"/>
<path d="M191.252 22.7999C189.273 22.7999 187.446 22.2715 185.888 21.2417C185.735 21.0895 185.431 20.9014 185.046 20.6686C184.974 20.6327 184.894 20.5163 184.894 20.3999V2.8208H187.141C187.938 2.8208 188.628 3.51035 188.628 4.30737V9.44767L189.317 9.06259C190.114 8.6417 191.18 8.45364 192.55 8.45364C194.95 8.45364 196.777 9.17901 197.995 10.585C199.061 11.8387 199.598 13.5133 199.598 15.573C199.598 17.6327 198.989 19.3074 197.771 20.5163C196.347 22.0387 194.144 22.7999 191.252 22.7999ZM191.628 10.5133C190.786 10.5133 189.837 10.8178 188.771 11.4626L188.619 11.5432V19.7999L188.771 19.9163C189.604 20.4447 190.598 20.7133 191.628 20.7133C192.998 20.7133 194.064 20.1402 194.789 19.0029C195.398 18.0895 195.738 16.9074 195.738 15.573C195.738 12.2238 194.332 10.5133 191.628 10.5133Z" fill="white"/>
<path d="M208.374 22.7642C204.192 22.7642 201.559 20.0239 201.559 15.5732C201.559 11.1583 204.147 8.41797 208.293 8.41797C209.887 8.41797 211.258 8.83886 212.368 9.63588L212.592 9.78812V8.68663H215.52C215.708 8.68663 215.825 8.83886 215.825 8.9911V22.5045H212.556V21.2866L212.332 21.4747C211.419 22.3075 209.968 22.7642 208.374 22.7642ZM209.135 10.8538C206.511 10.8538 204.953 12.8687 204.953 15.5732C204.953 18.2777 206.511 20.3642 209.135 20.3642C209.968 20.3642 211.419 20.2836 212.565 19.1463L212.601 19.1105V12.1881L212.565 12.1523C211.759 11.2299 210.577 10.8538 209.135 10.8538Z" fill="white"/>
<path d="M73.1592 22.612V2.78516H89.6368V4.03889C89.6368 5.03292 88.8398 5.82993 87.8457 5.82993H77.2696V11.1583H87.8457V14.2031H77.2696V19.5314H87.8457C88.8308 19.5314 89.6368 20.3284 89.6368 21.3225V22.5762L73.1592 22.612Z" fill="white"/>
<path d="M113.305 2.78516H109.428C108.702 2.78516 108.058 3.08963 107.601 3.66277L102.917 9.56426L98.2338 3.70754C97.7771 3.13441 97.1323 2.82993 96.4069 2.82993H92.5293L100.41 12.7255L92.5293 22.621H96.4069C97.1323 22.621 97.7771 22.3165 98.2338 21.7434L102.917 15.8866L107.637 21.7881C108.093 22.3165 108.738 22.6658 109.464 22.6658H113.341L105.461 12.7702L113.305 2.78516Z" fill="white"/>
<path d="M60.2548 20.5164L65.6548 11.0775V22.5671H69.7652V2.74919H67.213C66.416 2.74919 65.6548 3.17009 65.2697 3.89546L58.804 15.6895L52.3384 3.8865C51.9533 3.16113 51.1921 2.74023 50.3951 2.74023H47.8518V22.5671H51.9623V11.0775L57.3623 20.5164H60.2548Z" fill="white"/>
<path d="M124.043 22.8358C118.338 22.9074 113.691 18.4208 113.655 12.7164C113.655 9.59098 114.604 7.00292 116.395 5.22083C118.186 3.46561 120.774 2.51636 123.855 2.51636C127.473 2.51636 130.32 3.77009 132.38 6.20591L131.091 7.3074C130.294 7.988 129.111 8.03277 128.234 7.388C127.088 6.51039 125.646 6.08949 124.007 6.08949C119.977 6.08949 117.577 8.52531 117.577 12.6358C117.577 16.782 120.049 19.3343 124.007 19.3343C125.682 19.3343 127.088 18.8776 128.234 18.0447C129.076 17.3999 130.249 17.4358 131.091 18.1253L132.38 19.2268C130.32 21.6178 127.58 22.8358 124.043 22.8358Z" fill="white"/>
<path d="M149.35 22.8357C142.956 22.8357 138.998 18.9581 138.998 12.7163C138.998 6.47454 142.956 2.59692 149.27 2.59692C152.314 2.59692 154.867 3.47454 156.846 5.26558L155.897 6.33125C155.476 6.78797 154.867 7.05663 154.258 7.05663C153.917 7.05663 153.568 6.97603 153.273 6.82379C152.091 6.21483 150.72 5.91036 149.279 5.91036C145.168 5.91036 142.616 8.53424 142.616 12.7611C142.616 17.0238 145.276 19.6477 149.538 19.6477C151.598 19.6477 153.192 19.2626 154.374 18.4298L154.446 18.3939V14.3193H149.914V12.985C149.914 11.9999 150.711 11.1939 151.705 11.1939H157.303C157.455 11.1939 157.607 11.3462 157.607 11.4984V20.2924C155.664 21.9671 152.888 22.8357 149.35 22.8357Z" fill="white"/>
<path d="M164.95 22.7999C163.544 22.7999 162.434 22.4954 161.601 21.9671C160.723 21.3939 160.267 20.5611 160.267 19.4148V2.8208H162.47C163.267 2.8208 163.956 3.46558 163.956 4.30737V18.9223C163.956 18.9581 163.956 19.6477 164.529 20.2118C164.87 20.5521 165.29 20.7402 165.864 20.7402H166.285C166.437 20.7402 166.589 20.8924 166.589 21.0447V22.8357L164.95 22.7999Z" fill="white"/>
</g>
<defs>
<clipPath id="clip0_442_3906">
<rect width="223.881" height="24" fill="white" transform="translate(0.836914)"/>
</clipPath>
</defs>
</svg>
